<svg xmlns="http://www.w3.org/2000/svg" xmlns:xlink="http://www.w3.org/1999/xlink" width="80" zoomAndPan="magnify" viewBox="0 0 60 30.000001" height="40" preserveAspectRatio="xMidYMid meet" version="1.0"><defs><g/><clipPath id="f5c864d25b"><path d="M 48.414062 10.015625 L 57.203125 10.015625 L 57.203125 18.804688 L 48.414062 18.804688 Z M 48.414062 10.015625 " clip-rule="nonzero"/></clipPath><clipPath id="9f503ef297"><path d="M 52.808594 10.015625 C 50.382812 10.015625 48.414062 11.984375 48.414062 14.410156 C 48.414062 16.835938 50.382812 18.804688 52.808594 18.804688 C 55.234375 18.804688 57.203125 16.835938 57.203125 14.410156 C 57.203125 11.984375 55.234375 10.015625 52.808594 10.015625 " clip-rule="nonzero"/></clipPath></defs><g clip-path="url(#f5c864d25b)"><g clip-path="url(#9f503ef297)"><path fill="#850129" d="M 48.414062 10.015625 L 57.203125 10.015625 L 57.203125 18.804688 L 48.414062 18.804688 Z M 48.414062 10.015625 " fill-opacity="1" fill-rule="nonzero"/></g></g><g fill="#000000" fill-opacity="1"><g transform="translate(2.798344, 14.224296)"><g><path d="M 1.203125 -1.546875 L 1.203125 -1.390625 L 0.71875 -1.390625 L 0.71875 0 L 0.546875 0 L 0.546875 -1.390625 L 0.0625 -1.390625 L 0.0625 -1.546875 Z M 1.203125 -1.546875 "/></g></g><g transform="translate(4.05478, 14.224296)"><g><path d="M 1.21875 -0.921875 L 1.21875 -1.546875 L 1.390625 -1.546875 L 1.390625 0 L 1.21875 0 L 1.21875 -0.765625 L 0.40625 -0.765625 L 0.40625 0 L 0.234375 0 L 0.234375 -1.546875 L 0.40625 -1.546875 L 0.40625 -0.921875 Z M 1.21875 -0.921875 "/></g></g><g transform="translate(5.681622, 14.224296)"><g><path d="M 0.40625 -0.71875 L 0.40625 -0.15625 L 1.203125 -0.15625 L 1.203125 0 L 0.234375 0 L 0.234375 -1.546875 L 1.1875 -1.546875 L 1.1875 -1.390625 L 0.40625 -1.390625 L 0.40625 -0.875 L 1.09375 -0.875 L 1.09375 -0.71875 Z M 0.40625 -0.71875 "/></g></g></g><g fill="#000000" fill-opacity="1"><g transform="translate(7.442631, 15.503881)"><g><path d="M 1.953125 0 L 1.046875 0 L 0.109375 -4.109375 L 0.921875 -4.109375 L 1.546875 -1.21875 L 1.609375 -1.21875 L 2.34375 -4.109375 L 3.046875 -4.109375 L 3.796875 -1.21875 L 3.859375 -1.21875 L 4.484375 -4.109375 L 5.265625 -4.109375 L 4.328125 0 L 3.421875 0 L 2.703125 -2.640625 L 2.640625 -2.640625 Z M 1.953125 0 "/></g></g></g><g fill="#000000" fill-opacity="1"><g transform="translate(12.812213, 15.503881)"><g><path d="M 2.234375 0.0625 C 1.859375 0.0625 1.523438 -0.015625 1.234375 -0.171875 C 0.953125 -0.328125 0.726562 -0.5625 0.5625 -0.875 C 0.40625 -1.1875 0.328125 -1.578125 0.328125 -2.046875 C 0.328125 -2.515625 0.40625 -2.90625 0.5625 -3.21875 C 0.726562 -3.539062 0.953125 -3.773438 1.234375 -3.921875 C 1.523438 -4.078125 1.859375 -4.15625 2.234375 -4.15625 C 2.609375 -4.15625 2.9375 -4.078125 3.21875 -3.921875 C 3.507812 -3.773438 3.734375 -3.539062 3.890625 -3.21875 C 4.054688 -2.90625 4.140625 -2.515625 4.140625 -2.046875 C 4.140625 -1.578125 4.054688 -1.1875 3.890625 -0.875 C 3.734375 -0.5625 3.507812 -0.328125 3.21875 -0.171875 C 2.9375 -0.015625 2.609375 0.0625 2.234375 0.0625 Z M 2.234375 -0.640625 C 2.585938 -0.640625 2.851562 -0.75 3.03125 -0.96875 C 3.21875 -1.195312 3.3125 -1.554688 3.3125 -2.046875 C 3.3125 -2.535156 3.21875 -2.894531 3.03125 -3.125 C 2.851562 -3.351562 2.585938 -3.46875 2.234375 -3.46875 C 1.890625 -3.46875 1.625 -3.351562 1.4375 -3.125 C 1.25 -2.894531 1.15625 -2.535156 1.15625 -2.046875 C 1.15625 -1.554688 1.25 -1.195312 1.4375 -0.96875 C 1.625 -0.75 1.890625 -0.640625 2.234375 -0.640625 Z M 2.234375 -0.640625 "/></g></g></g><g fill="#000000" fill-opacity="1"><g transform="translate(17.281254, 15.503881)"><g><path d="M 2.234375 0.0625 C 1.859375 0.0625 1.523438 -0.015625 1.234375 -0.171875 C 0.953125 -0.328125 0.726562 -0.5625 0.5625 -0.875 C 0.40625 -1.1875 0.328125 -1.578125 0.328125 -2.046875 C 0.328125 -2.515625 0.40625 -2.90625 0.5625 -3.21875 C 0.726562 -3.539062 0.953125 -3.773438 1.234375 -3.921875 C 1.523438 -4.078125 1.859375 -4.15625 2.234375 -4.15625 C 2.609375 -4.15625 2.9375 -4.078125 3.21875 -3.921875 C 3.507812 -3.773438 3.734375 -3.539062 3.890625 -3.21875 C 4.054688 -2.90625 4.140625 -2.515625 4.140625 -2.046875 C 4.140625 -1.578125 4.054688 -1.1875 3.890625 -0.875 C 3.734375 -0.5625 3.507812 -0.328125 3.21875 -0.171875 C 2.9375 -0.015625 2.609375 0.0625 2.234375 0.0625 Z M 2.234375 -0.640625 C 2.585938 -0.640625 2.851562 -0.75 3.03125 -0.96875 C 3.21875 -1.195312 3.3125 -1.554688 3.3125 -2.046875 C 3.3125 -2.535156 3.21875 -2.894531 3.03125 -3.125 C 2.851562 -3.351562 2.585938 -3.46875 2.234375 -3.46875 C 1.890625 -3.46875 1.625 -3.351562 1.4375 -3.125 C 1.25 -2.894531 1.15625 -2.535156 1.15625 -2.046875 C 1.15625 -1.554688 1.25 -1.195312 1.4375 -0.96875 C 1.625 -0.75 1.890625 -0.640625 2.234375 -0.640625 Z M 2.234375 -0.640625 "/></g></g></g><g fill="#000000" fill-opacity="1"><g transform="translate(21.750295, 15.503881)"><g><path d="M 2.015625 -4.109375 C 2.679688 -4.109375 3.1875 -3.9375 3.53125 -3.59375 C 3.882812 -3.25 4.0625 -2.734375 4.0625 -2.046875 C 4.0625 -1.367188 3.882812 -0.859375 3.53125 -0.515625 C 3.1875 -0.171875 2.679688 0 2.015625 0 L 0.53125 0 L 0.53125 -4.109375 Z M 1.96875 -0.6875 C 2.382812 -0.6875 2.695312 -0.789062 2.90625 -1 C 3.113281 -1.21875 3.21875 -1.566406 3.21875 -2.046875 C 3.21875 -2.535156 3.113281 -2.882812 2.90625 -3.09375 C 2.695312 -3.3125 2.382812 -3.421875 1.96875 -3.421875 L 1.34375 -3.421875 L 1.34375 -0.6875 Z M 1.96875 -0.6875 "/></g></g></g><g fill="#000000" fill-opacity="1"><g transform="translate(26.135173, 15.503881)"><g><path d="M 1.34375 -4.109375 L 1.34375 -0.671875 L 3.1875 -0.671875 L 3.1875 0 L 0.53125 0 L 0.53125 -4.109375 Z M 1.34375 -4.109375 "/></g></g></g><g fill="#000000" fill-opacity="1"><g transform="translate(29.456796, 15.503881)"><g><path d="M 3.9375 0 L 3.078125 0 L 2.78125 -0.953125 L 1.203125 -0.953125 L 0.890625 0 L 0.0625 0 L 1.484375 -4.109375 L 2.515625 -4.109375 Z M 1.953125 -3.25 L 1.421875 -1.625 L 2.546875 -1.625 L 2.015625 -3.25 Z M 1.953125 -3.25 "/></g></g></g><g fill="#000000" fill-opacity="1"><g transform="translate(33.454526, 15.503881)"><g><path d="M 1.3125 0 L 0.53125 0 L 0.53125 -4.109375 L 1.46875 -4.109375 L 3.109375 -1.453125 L 3.1875 -1.46875 L 3.1875 -4.109375 L 3.96875 -4.109375 L 3.96875 0 L 3.140625 0 L 1.390625 -2.828125 L 1.3125 -2.8125 Z M 1.3125 0 "/></g></g></g><g fill="#000000" fill-opacity="1"><g transform="translate(37.951621, 15.503881)"><g><path d="M 2.015625 -4.109375 C 2.679688 -4.109375 3.1875 -3.9375 3.53125 -3.59375 C 3.882812 -3.25 4.0625 -2.734375 4.0625 -2.046875 C 4.0625 -1.367188 3.882812 -0.859375 3.53125 -0.515625 C 3.1875 -0.171875 2.679688 0 2.015625 0 L 0.53125 0 L 0.53125 -4.109375 Z M 1.96875 -0.6875 C 2.382812 -0.6875 2.695312 -0.789062 2.90625 -1 C 3.113281 -1.21875 3.21875 -1.566406 3.21875 -2.046875 C 3.21875 -2.535156 3.113281 -2.882812 2.90625 -3.09375 C 2.695312 -3.3125 2.382812 -3.421875 1.96875 -3.421875 L 1.34375 -3.421875 L 1.34375 -0.6875 Z M 1.96875 -0.6875 "/></g></g></g><g fill="#000000" fill-opacity="1"><g transform="translate(42.336499, 15.503881)"><g><path d="M 1.8125 0.0625 C 1.53125 0.0625 1.28125 0.0234375 1.0625 -0.046875 C 0.84375 -0.117188 0.65625 -0.210938 0.5 -0.328125 C 0.351562 -0.441406 0.242188 -0.566406 0.171875 -0.703125 L 0.609375 -1.25 L 0.6875 -1.25 C 0.8125 -1.0625 0.96875 -0.910156 1.15625 -0.796875 C 1.34375 -0.691406 1.5625 -0.640625 1.8125 -0.640625 C 2.03125 -0.640625 2.191406 -0.6875 2.296875 -0.78125 C 2.410156 -0.875 2.46875 -1 2.46875 -1.15625 C 2.46875 -1.257812 2.453125 -1.34375 2.421875 -1.40625 C 2.390625 -1.46875 2.332031 -1.519531 2.25 -1.5625 C 2.164062 -1.613281 2.050781 -1.65625 1.90625 -1.6875 L 1.390625 -1.8125 C 1.015625 -1.894531 0.738281 -2.035156 0.5625 -2.234375 C 0.382812 -2.429688 0.296875 -2.6875 0.296875 -3 C 0.296875 -3.226562 0.351562 -3.429688 0.46875 -3.609375 C 0.582031 -3.785156 0.75 -3.921875 0.96875 -4.015625 C 1.1875 -4.109375 1.453125 -4.15625 1.765625 -4.15625 C 2.078125 -4.15625 2.347656 -4.113281 2.578125 -4.03125 C 2.804688 -3.945312 3 -3.820312 3.15625 -3.65625 L 2.75 -3.109375 L 2.671875 -3.109375 C 2.554688 -3.222656 2.425781 -3.3125 2.28125 -3.375 C 2.132812 -3.4375 1.960938 -3.46875 1.765625 -3.46875 C 1.546875 -3.46875 1.375 -3.425781 1.25 -3.34375 C 1.132812 -3.269531 1.078125 -3.164062 1.078125 -3.03125 C 1.078125 -2.894531 1.117188 -2.789062 1.203125 -2.71875 C 1.285156 -2.644531 1.425781 -2.582031 1.625 -2.53125 L 2.171875 -2.421875 C 2.566406 -2.335938 2.851562 -2.195312 3.03125 -2 C 3.207031 -1.800781 3.296875 -1.535156 3.296875 -1.203125 C 3.296875 -0.953125 3.238281 -0.726562 3.125 -0.53125 C 3.019531 -0.34375 2.859375 -0.195312 2.640625 -0.09375 C 2.421875 0.0078125 2.144531 0.0625 1.8125 0.0625 Z M 1.8125 0.0625 "/></g></g></g><g fill="#850129" fill-opacity="1"><g transform="translate(24.208259, 18.556928)"><g><path d="M 0.40625 0 L 0.234375 0 L 0.234375 -1.546875 L 0.5 -1.546875 L 0.96875 -0.234375 L 0.984375 -0.234375 L 1.453125 -1.546875 L 1.71875 -1.546875 L 1.71875 0 L 1.546875 0 L 1.546875 -1.25 L 1.515625 -1.265625 L 1.0625 0 L 0.875 0 L 0.421875 -1.265625 L 0.40625 -1.25 Z M 0.40625 0 "/></g></g><g transform="translate(26.156049, 18.556928)"><g><path d="M 0.40625 -0.71875 L 0.40625 -0.15625 L 1.203125 -0.15625 L 1.203125 0 L 0.234375 0 L 0.234375 -1.546875 L 1.1875 -1.546875 L 1.1875 -1.390625 L 0.40625 -1.390625 L 0.40625 -0.875 L 1.09375 -0.875 L 1.09375 -0.71875 Z M 0.40625 -0.71875 "/></g></g><g transform="translate(27.455629, 18.556928)"><g><path d="M 1.203125 -1.546875 L 1.203125 -1.390625 L 0.71875 -1.390625 L 0.71875 0 L 0.546875 0 L 0.546875 -1.390625 L 0.0625 -1.390625 L 0.0625 -1.546875 Z M 1.203125 -1.546875 "/></g></g><g transform="translate(28.712064, 18.556928)"><g><path d="M 1.21875 -0.921875 L 1.21875 -1.546875 L 1.390625 -1.546875 L 1.390625 0 L 1.21875 0 L 1.21875 -0.765625 L 0.40625 -0.765625 L 0.40625 0 L 0.234375 0 L 0.234375 -1.546875 L 0.40625 -1.546875 L 0.40625 -0.921875 Z M 1.21875 -0.921875 "/></g></g><g transform="translate(30.338906, 18.556928)"><g><path d="M 0.84375 0.015625 C 0.707031 0.015625 0.585938 -0.0078125 0.484375 -0.0625 C 0.378906 -0.125 0.296875 -0.210938 0.234375 -0.328125 C 0.179688 -0.441406 0.15625 -0.585938 0.15625 -0.765625 C 0.15625 -0.941406 0.179688 -1.085938 0.234375 -1.203125 C 0.296875 -1.328125 0.378906 -1.414062 0.484375 -1.46875 C 0.585938 -1.53125 0.707031 -1.5625 0.84375 -1.5625 C 0.976562 -1.5625 1.097656 -1.53125 1.203125 -1.46875 C 1.304688 -1.414062 1.382812 -1.328125 1.4375 -1.203125 C 1.5 -1.085938 1.53125 -0.941406 1.53125 -0.765625 C 1.53125 -0.585938 1.5 -0.441406 1.4375 -0.328125 C 1.382812 -0.210938 1.304688 -0.125 1.203125 -0.0625 C 1.097656 -0.0078125 0.976562 0.015625 0.84375 0.015625 Z M 0.84375 -0.140625 C 1 -0.140625 1.117188 -0.191406 1.203125 -0.296875 C 1.296875 -0.398438 1.34375 -0.554688 1.34375 -0.765625 C 1.34375 -0.984375 1.296875 -1.140625 1.203125 -1.234375 C 1.117188 -1.335938 1 -1.390625 0.84375 -1.390625 C 0.507812 -1.390625 0.34375 -1.179688 0.34375 -0.765625 C 0.34375 -0.347656 0.507812 -0.140625 0.84375 -0.140625 Z M 0.84375 -0.140625 "/></g></g><g transform="translate(32.026781, 18.556928)"><g><path d="M 0.734375 -1.546875 C 0.890625 -1.546875 1.019531 -1.515625 1.125 -1.453125 C 1.238281 -1.398438 1.328125 -1.316406 1.390625 -1.203125 C 1.453125 -1.085938 1.484375 -0.941406 1.484375 -0.765625 C 1.484375 -0.597656 1.453125 -0.457031 1.390625 -0.34375 C 1.328125 -0.226562 1.238281 -0.140625 1.125 -0.078125 C 1.019531 -0.0234375 0.890625 0 0.734375 0 L 0.234375 0 L 0.234375 -1.546875 Z M 0.71875 -0.15625 C 0.84375 -0.15625 0.945312 -0.175781 1.03125 -0.21875 C 1.113281 -0.257812 1.175781 -0.320312 1.21875 -0.40625 C 1.257812 -0.5 1.28125 -0.617188 1.28125 -0.765625 C 1.28125 -0.921875 1.257812 -1.039062 1.21875 -1.125 C 1.175781 -1.21875 1.113281 -1.285156 1.03125 -1.328125 C 0.945312 -1.367188 0.84375 -1.390625 0.71875 -1.390625 L 0.40625 -1.390625 L 0.40625 -0.15625 Z M 0.71875 -0.15625 "/></g></g><g transform="translate(33.662041, 18.556928)"><g><path d="M 0.40625 0 L 0.234375 0 L 0.234375 -1.546875 L 0.40625 -1.546875 Z M 0.40625 0 "/></g></g><g transform="translate(34.3092, 18.556928)"><g><path d="M 0.671875 0.015625 C 0.578125 0.015625 0.488281 0.00390625 0.40625 -0.015625 C 0.332031 -0.046875 0.269531 -0.0820312 0.21875 -0.125 C 0.164062 -0.164062 0.128906 -0.210938 0.109375 -0.265625 L 0.203125 -0.375 L 0.234375 -0.375 C 0.328125 -0.21875 0.472656 -0.140625 0.671875 -0.140625 C 0.785156 -0.140625 0.867188 -0.160156 0.921875 -0.203125 C 0.984375 -0.253906 1.015625 -0.328125 1.015625 -0.421875 C 1.015625 -0.460938 1.003906 -0.5 0.984375 -0.53125 C 0.960938 -0.570312 0.929688 -0.601562 0.890625 -0.625 C 0.847656 -0.65625 0.789062 -0.679688 0.71875 -0.703125 L 0.546875 -0.75 C 0.410156 -0.78125 0.3125 -0.828125 0.25 -0.890625 C 0.1875 -0.960938 0.15625 -1.054688 0.15625 -1.171875 C 0.15625 -1.242188 0.171875 -1.304688 0.203125 -1.359375 C 0.242188 -1.421875 0.300781 -1.46875 0.375 -1.5 C 0.457031 -1.539062 0.550781 -1.5625 0.65625 -1.5625 C 0.769531 -1.5625 0.863281 -1.546875 0.9375 -1.515625 C 1.019531 -1.484375 1.085938 -1.429688 1.140625 -1.359375 L 1.046875 -1.25 L 1.015625 -1.25 C 0.972656 -1.300781 0.921875 -1.335938 0.859375 -1.359375 C 0.804688 -1.390625 0.738281 -1.40625 0.65625 -1.40625 C 0.550781 -1.40625 0.46875 -1.382812 0.40625 -1.34375 C 0.351562 -1.300781 0.328125 -1.242188 0.328125 -1.171875 C 0.328125 -1.097656 0.347656 -1.039062 0.390625 -1 C 0.429688 -0.957031 0.5 -0.925781 0.59375 -0.90625 L 0.78125 -0.859375 C 0.925781 -0.828125 1.03125 -0.773438 1.09375 -0.703125 C 1.164062 -0.628906 1.203125 -0.535156 1.203125 -0.421875 C 1.203125 -0.335938 1.179688 -0.257812 1.140625 -0.1875 C 1.097656 -0.125 1.035156 -0.0703125 0.953125 -0.03125 C 0.878906 0 0.785156 0.015625 0.671875 0.015625 Z M 0.671875 0.015625 "/></g></g><g transform="translate(35.627721, 18.556928)"><g><path d="M 1.203125 -1.546875 L 1.203125 -1.390625 L 0.71875 -1.390625 L 0.71875 0 L 0.546875 0 L 0.546875 -1.390625 L 0.0625 -1.390625 L 0.0625 -1.546875 Z M 1.203125 -1.546875 "/></g></g><g transform="translate(36.884157, 18.556928)"><g/></g><g transform="translate(37.412407, 18.556928)"><g><path d="M 0.84375 0.015625 C 0.71875 0.015625 0.597656 -0.0078125 0.484375 -0.0625 C 0.378906 -0.125 0.296875 -0.210938 0.234375 -0.328125 C 0.179688 -0.453125 0.15625 -0.597656 0.15625 -0.765625 C 0.15625 -0.929688 0.179688 -1.070312 0.234375 -1.1875 C 0.296875 -1.3125 0.378906 -1.40625 0.484375 -1.46875 C 0.597656 -1.53125 0.71875 -1.5625 0.84375 -1.5625 C 0.988281 -1.5625 1.109375 -1.53125 1.203125 -1.46875 C 1.304688 -1.414062 1.378906 -1.335938 1.421875 -1.234375 L 1.296875 -1.15625 L 1.28125 -1.15625 C 1.226562 -1.238281 1.171875 -1.300781 1.109375 -1.34375 C 1.046875 -1.382812 0.957031 -1.40625 0.84375 -1.40625 C 0.75 -1.40625 0.664062 -1.378906 0.59375 -1.328125 C 0.519531 -1.285156 0.457031 -1.21875 0.40625 -1.125 C 0.363281 -1.03125 0.34375 -0.910156 0.34375 -0.765625 C 0.34375 -0.617188 0.363281 -0.5 0.40625 -0.40625 C 0.457031 -0.3125 0.519531 -0.242188 0.59375 -0.203125 C 0.664062 -0.160156 0.75 -0.140625 0.84375 -0.140625 C 0.957031 -0.140625 1.050781 -0.164062 1.125 -0.21875 C 1.195312 -0.269531 1.25 -0.347656 1.28125 -0.453125 L 1.3125 -0.453125 L 1.4375 -0.40625 C 1.394531 -0.269531 1.320312 -0.164062 1.21875 -0.09375 C 1.125 -0.0195312 1 0.015625 0.84375 0.015625 Z M 0.84375 0.015625 "/></g></g><g transform="translate(38.921392, 18.556928)"><g><path d="M 1.21875 -0.921875 L 1.21875 -1.546875 L 1.390625 -1.546875 L 1.390625 0 L 1.21875 0 L 1.21875 -0.765625 L 0.40625 -0.765625 L 0.40625 0 L 0.234375 0 L 0.234375 -1.546875 L 0.40625 -1.546875 L 0.40625 -0.921875 Z M 1.21875 -0.921875 "/></g></g><g transform="translate(40.548234, 18.556928)"><g><path d="M 0.796875 0.015625 C 0.609375 0.015625 0.460938 -0.03125 0.359375 -0.125 C 0.265625 -0.21875 0.21875 -0.359375 0.21875 -0.546875 L 0.21875 -1.546875 L 0.40625 -1.546875 L 0.40625 -0.546875 C 0.40625 -0.410156 0.4375 -0.304688 0.5 -0.234375 C 0.5625 -0.171875 0.660156 -0.140625 0.796875 -0.140625 C 1.054688 -0.140625 1.1875 -0.273438 1.1875 -0.546875 L 1.1875 -1.546875 L 1.375 -1.546875 L 1.375 -0.546875 C 1.375 -0.359375 1.320312 -0.21875 1.21875 -0.125 C 1.125 -0.03125 0.984375 0.015625 0.796875 0.015625 Z M 0.796875 0.015625 "/></g></g><g transform="translate(42.134037, 18.556928)"><g><path d="M 0.234375 0 L 0.234375 -1.546875 L 0.796875 -1.546875 C 0.898438 -1.546875 0.984375 -1.523438 1.046875 -1.484375 C 1.117188 -1.453125 1.171875 -1.40625 1.203125 -1.34375 C 1.242188 -1.28125 1.265625 -1.207031 1.265625 -1.125 C 1.265625 -1.03125 1.238281 -0.953125 1.1875 -0.890625 C 1.144531 -0.828125 1.070312 -0.78125 0.96875 -0.75 L 0.96875 -0.71875 C 1.019531 -0.707031 1.0625 -0.675781 1.09375 -0.625 C 1.125 -0.582031 1.148438 -0.519531 1.171875 -0.4375 L 1.3125 0 L 1.140625 0 L 0.984375 -0.46875 C 0.960938 -0.519531 0.9375 -0.5625 0.90625 -0.59375 C 0.882812 -0.632812 0.851562 -0.660156 0.8125 -0.671875 C 0.78125 -0.679688 0.738281 -0.6875 0.6875 -0.6875 L 0.40625 -0.6875 L 0.40625 0 Z M 0.78125 -0.84375 C 0.882812 -0.84375 0.957031 -0.863281 1 -0.90625 C 1.050781 -0.957031 1.078125 -1.023438 1.078125 -1.109375 C 1.078125 -1.203125 1.050781 -1.269531 1 -1.3125 C 0.957031 -1.363281 0.882812 -1.390625 0.78125 -1.390625 L 0.40625 -1.390625 L 0.40625 -0.84375 Z M 0.78125 -0.84375 "/></g></g><g transform="translate(43.558839, 18.556928)"><g><path d="M 0.84375 0.015625 C 0.71875 0.015625 0.597656 -0.0078125 0.484375 -0.0625 C 0.378906 -0.125 0.296875 -0.210938 0.234375 -0.328125 C 0.179688 -0.453125 0.15625 -0.597656 0.15625 -0.765625 C 0.15625 -0.929688 0.179688 -1.070312 0.234375 -1.1875 C 0.296875 -1.3125 0.378906 -1.40625 0.484375 -1.46875 C 0.597656 -1.53125 0.71875 -1.5625 0.84375 -1.5625 C 0.988281 -1.5625 1.109375 -1.53125 1.203125 -1.46875 C 1.304688 -1.414062 1.378906 -1.335938 1.421875 -1.234375 L 1.296875 -1.15625 L 1.28125 -1.15625 C 1.226562 -1.238281 1.171875 -1.300781 1.109375 -1.34375 C 1.046875 -1.382812 0.957031 -1.40625 0.84375 -1.40625 C 0.75 -1.40625 0.664062 -1.378906 0.59375 -1.328125 C 0.519531 -1.285156 0.457031 -1.21875 0.40625 -1.125 C 0.363281 -1.03125 0.34375 -0.910156 0.34375 -0.765625 C 0.34375 -0.617188 0.363281 -0.5 0.40625 -0.40625 C 0.457031 -0.3125 0.519531 -0.242188 0.59375 -0.203125 C 0.664062 -0.160156 0.75 -0.140625 0.84375 -0.140625 C 0.957031 -0.140625 1.050781 -0.164062 1.125 -0.21875 C 1.195312 -0.269531 1.25 -0.347656 1.28125 -0.453125 L 1.3125 -0.453125 L 1.4375 -0.40625 C 1.394531 -0.269531 1.320312 -0.164062 1.21875 -0.09375 C 1.125 -0.0195312 1 0.015625 0.84375 0.015625 Z M 0.84375 0.015625 "/></g></g><g transform="translate(45.067824, 18.556928)"><g><path d="M 1.21875 -0.921875 L 1.21875 -1.546875 L 1.390625 -1.546875 L 1.390625 0 L 1.21875 0 L 1.21875 -0.765625 L 0.40625 -0.765625 L 0.40625 0 L 0.234375 0 L 0.234375 -1.546875 L 0.40625 -1.546875 L 0.40625 -0.921875 Z M 1.21875 -0.921875 "/></g></g></g></svg>